<svg width="32" height="32" viewBox="0 0 32 32" fill="none" xmlns="http://www.w3.org/2000/svg">
<path fill-rule="evenodd" clip-rule="evenodd" d="M0 15.9557C0 7.4575 7.16344 0.568359 16 0.568359C24.8366 0.568359 32 7.4575 32 15.9557C32 24.4539 24.8366 31.343 16 31.343C7.16344 31.343 0 24.4539 0 15.9557ZM16 8.26203C20.4 8.26203 24 11.7242 24 15.9557C24 19.8025 21.1 23.0723 17.1 23.6494V18.1676H19L19.4 15.9557H17.2V14.5131C17.2 13.9361 17.5 13.3591 18.5 13.3591H19.5V11.4357C19.5 11.4357 18.6 11.2433 17.7 11.2433C15.9 11.2433 14.7 12.3012 14.7 14.2246V15.9557H12.7V18.1676H14.7V23.5532C10.9 22.9762 8 19.8025 8 15.9557C8 11.7242 11.6 8.26203 16 8.26203Z" fill="#C0B7E8"/>
</svg>
