<svg width="32" height="32" viewBox="0 0 32 32" fill="none" xmlns="http://www.w3.org/2000/svg">
<path d="M16 18.6485C14.5 18.6485 13.2 17.4944 13.2 15.9557C13.2 14.5131 14.4 13.2629 16 13.2629C17.5 13.2629 18.8 14.417 18.8 15.9557C18.8 17.3983 17.5 18.6485 16 18.6485Z" fill="#C0B7E8"/>
<path fill-rule="evenodd" clip-rule="evenodd" d="M19.4 9.41607H12.6C11.8 9.51224 11.4 9.60841 11.1 9.70459C10.7 9.80076 10.4 9.9931 10.1 10.2816C9.86261 10.5099 9.75045 10.7382 9.61489 11.0141C9.57916 11.0869 9.5417 11.1631 9.5 11.2433C9.48453 11.288 9.46667 11.3349 9.44752 11.3852C9.34291 11.6601 9.2 12.0355 9.2 12.6859V19.2255C9.3 19.9949 9.4 20.3795 9.5 20.6681C9.6 21.0527 9.8 21.3413 10.1 21.6298C10.3374 21.8581 10.5748 21.9659 10.8617 22.0963C10.9374 22.1307 11.0165 22.1667 11.1 22.2068C11.1464 22.2217 11.1952 22.2388 11.2475 22.2573C11.5333 22.3579 11.9238 22.4953 12.6 22.4953H19.4C20.2 22.3991 20.6 22.303 20.9 22.2068C21.3 22.1106 21.6 21.9183 21.9 21.6298C22.1374 21.4015 22.2495 21.1732 22.3851 20.8972C22.4209 20.8245 22.4583 20.7483 22.5 20.6681C22.5155 20.6234 22.5333 20.5765 22.5525 20.5262C22.6571 20.2513 22.8 19.8758 22.8 19.2255V12.6859C22.7 11.9165 22.6 11.5318 22.5 11.2433C22.4 10.8586 22.2 10.5701 21.9 10.2816C21.6626 10.0533 21.4252 9.94545 21.1383 9.81507C21.0627 9.78074 20.9833 9.74466 20.9 9.70459C20.8536 9.68971 20.8048 9.67253 20.7525 9.65412C20.4667 9.55351 20.0762 9.41607 19.4 9.41607ZM16 11.8203C13.6 11.8203 11.7 13.6476 11.7 15.9557C11.7 18.2638 13.6 20.091 16 20.091C18.4 20.091 20.3 18.2638 20.3 15.9557C20.3 13.6476 18.4 11.8203 16 11.8203ZM21.4 11.7242C21.4 12.2553 20.9523 12.6859 20.4 12.6859C19.8477 12.6859 19.4 12.2553 19.4 11.7242C19.4 11.193 19.8477 10.7625 20.4 10.7625C20.9523 10.7625 21.4 11.193 21.4 11.7242Z" fill="#C0B7E8"/>
<path fill-rule="evenodd" clip-rule="evenodd" d="M0 15.9557C0 7.4575 7.16344 0.568359 16 0.568359C24.8366 0.568359 32 7.4575 32 15.9557C32 24.4539 24.8366 31.343 16 31.343C7.16344 31.343 0 24.4539 0 15.9557ZM12.6 7.97351H19.4C20.3 8.06968 20.9 8.16585 21.4 8.35819C22 8.64671 22.4 8.83905 22.9 9.3199C23.4 9.80076 23.7 10.2816 23.9 10.7625C24.1 11.2433 24.3 11.8203 24.3 12.6859V19.2255C24.2 20.091 24.1 20.6681 23.9 21.1489C23.6 21.7259 23.4 22.1106 22.9 22.5915C22.4 23.0723 21.9 23.3608 21.4 23.5532C20.9 23.7455 20.3 23.9379 19.4 23.9379H12.6C11.7 23.8417 11.1 23.7455 10.6 23.5532C10 23.2647 9.6 23.0723 9.1 22.5915C8.6 22.1106 8.3 21.6298 8.1 21.1489C7.9 20.6681 7.7 20.091 7.7 19.2255V12.6859C7.8 11.8203 7.9 11.2433 8.1 10.7625C8.4 10.1854 8.6 9.80076 9.1 9.3199C9.6 8.83905 10.1 8.55054 10.6 8.35819C11.1 8.16585 11.7 7.97351 12.6 7.97351Z" fill="#C0B7E8"/>
</svg>
