<svg width="32" height="32" viewBox="0 0 32 32" fill="none" xmlns="http://www.w3.org/2000/svg">
<path fill-rule="evenodd" clip-rule="evenodd" d="M0 15.9557C0 7.4575 7.16344 0.568359 16 0.568359C24.8366 0.568359 32 7.4575 32 15.9557C32 24.4539 24.8366 31.343 16 31.343C7.16344 31.343 0 24.4539 0 15.9557ZM8.2 13.3591V23.6494H11.6V13.3591H8.2ZM8 10.0893C8 11.1472 8.8 11.9165 9.9 11.9165C11 11.9165 11.8 11.1472 11.8 10.0893C11.8 9.0314 11 8.26203 9.9 8.26203C8.9 8.26203 8 9.0314 8 10.0893ZM20.6 23.6494H23.8V17.3021C23.8 14.1284 21.8 13.0706 19.9 13.0706C18.2 13.0706 17 14.1284 16.7 14.8016V13.3591H13.5V23.6494H16.9V18.1676C16.9 16.7251 17.9 15.9557 18.9 15.9557C19.9 15.9557 20.6 16.4365 20.6 18.0714V23.6494Z" fill="#C0B7E8"/>
</svg>
