<svg width="32" height="32" viewBox="0 0 32 32" fill="none" xmlns="http://www.w3.org/2000/svg">
<path fill-rule="evenodd" clip-rule="evenodd" d="M0 15.9557C0 7.4575 7.16344 0.568359 16 0.568359C24.8366 0.568359 32 7.4575 32 15.9557C32 24.4539 24.8366 31.343 16 31.343C7.16344 31.343 0 24.4539 0 15.9557ZM8 15.9557C8 11.7242 11.6 8.26203 16 8.26203C20.4 8.26203 24 11.7242 23.9 15.571C23.9 19.8025 20.3 23.2647 15.9 23.2647C15.1 23.2647 14.3 23.1685 13.6 22.9762C13.9 22.4953 14.2 21.9183 14.4 21.3413C14.5 20.9566 15 19.2255 15 19.2255C15.3 19.7064 16.1 20.1872 17 20.1872C19.6 20.1872 21.3 17.8791 21.3 14.8978C21.3 12.5897 19.3 10.474 16.2 10.474C12.4 10.474 10.5 13.0706 10.5 15.2825C10.5 16.6289 11 17.7829 12.1 18.2638C12.3 18.36 12.4 18.2638 12.5 18.0714C12.6 17.9753 12.7 17.5906 12.7 17.4944C12.7707 17.3584 12.7414 17.3186 12.6828 17.2389C12.6586 17.2059 12.6293 17.1661 12.6 17.1097C12.3 16.7251 12.1 16.2442 12.1 15.571C12.1 13.6476 13.6 11.9165 16 11.9165C18.1 11.9165 19.3 13.1667 19.3 14.8978C19.3 17.2059 18.3 19.0332 16.8 19.0332C15.9 19.0332 15.3 18.36 15.5 17.5906C15.5835 17.1892 15.7192 16.771 15.8491 16.371C16.0303 15.8127 16.2 15.29 16.2 14.8978C16.2 14.2246 15.8 13.7438 15.1 13.7438C14.3 13.7438 13.6 14.6093 13.6 15.7634C13.6 16.5327 13.9 17.0136 13.9 17.0136C13.9 17.0136 13.1 20.5719 12.9 21.2451C12.8 21.8221 12.8 22.399 12.8 22.976C10 21.822 8 19.1293 8 15.9557Z" fill="#C0B7E8"/>
</svg>
