<svg width="32" height="32" viewBox="0 0 32 32" fill="none" xmlns="http://www.w3.org/2000/svg">
<path fill-rule="evenodd" clip-rule="evenodd" d="M0 15.9557C0 7.4575 7.16344 0.568359 16 0.568359C24.8366 0.568359 32 7.4575 32 15.9557C32 24.4539 24.8366 31.343 16 31.343C7.16344 31.343 0 24.4539 0 15.9557ZM22.1 11.628C22.8 11.5318 23.4 11.4357 24 11.1472C23.6 11.8203 23 12.3974 22.3 12.7821C22.5 17.3021 19.1 22.2068 13 22.2068C11.2 22.2068 9.5 21.6298 8 20.7642C9.7 20.9566 11.5 20.4757 12.7 19.6102C11.2 19.6102 10 18.6485 9.6 17.3983C10.1 17.4944 10.6 17.3983 11.1 17.3021C9.6 16.9174 8.5 15.571 8.5 14.1284C9 14.3208 9.5 14.5131 10 14.5131C8.6 13.5514 8.1 11.7242 9 10.2816C10.7 12.205 13.1 13.4553 15.8 13.5514C15.3 11.628 16.9 9.70459 19 9.70459C19.9 9.70459 20.8 10.0893 21.4 10.6663C22.2 10.474 22.9 10.2816 23.5 9.89693C23.3 10.6663 22.8 11.2433 22.1 11.628Z" fill="#C0B7E8"/>
</svg>
