<svg width="32" height="32" viewBox="0 0 32 32" fill="none" xmlns="http://www.w3.org/2000/svg">
<path d="M18.6 15.9557L14.4 13.6476V18.2638L18.6 15.9557Z" fill="#C0B7E8"/>
<path fill-rule="evenodd" clip-rule="evenodd" d="M0 15.9557C0 7.4575 7.16344 0.568359 16 0.568359C24.8366 0.568359 32 7.4575 32 15.9557C32 24.4539 24.8366 31.343 16 31.343C7.16344 31.343 0 24.4539 0 15.9557ZM22.2 10.8586C22.9 11.051 23.4 11.5318 23.6 12.205C24 13.4553 24 15.9557 24 15.9557C24 15.9557 24 18.4561 23.7 19.7064C23.5 20.3796 23 20.8604 22.3 21.0527C21 21.3413 16 21.3413 16 21.3413C16 21.3413 10.9 21.3413 9.7 21.0527C9 20.8604 8.5 20.3796 8.3 19.7064C8 18.4561 8 15.9557 8 15.9557C8 15.9557 8 13.4553 8.2 12.205C8.4 11.5318 8.90001 11.051 9.60001 10.8586C10.9 10.5701 15.9 10.5701 15.9 10.5701C15.9 10.5701 21 10.5701 22.2 10.8586Z" fill="#C0B7E8"/>
</svg>
